<svg width="39" height="28" viewBox="0 0 39 28" fill="none" xmlns="http://www.w3.org/2000/svg">
<path d="M31.9091 7L24.8182 14H30.1364C30.1364 19.7925 25.3677 24.5 19.5 24.5C17.7095 24.5 16.0077 24.0625 14.5364 23.275L11.9482 25.83C14.1286 27.195 16.7168 28 19.5 28C27.3355 28 33.6818 21.735 33.6818 14H39L31.9091 7ZM8.86364 14C8.86364 8.2075 13.6323 3.5 19.5 3.5C21.2905 3.5 22.9923 3.9375 24.4636 4.725L27.0518 2.17C24.8714 0.805 22.2832 0 19.5 0C11.6645 0 5.31818 6.265 5.31818 14H0L7.09091 21L14.1818 14H8.86364Z" fill="#242424"/>
</svg>
